<svg xmlns="http://www.w3.org/2000/svg" width="221" height="221" viewBox="0 0 221 221"><g fill="none" fill-rule="evenodd"><rect width="221" height="221" fill="#00C586" rx="41"/><path fill="#E7E7E7" stroke="#E7E7E7" stroke-width="13" d="M87.6840861,81.2581234 C94.8672687,78.8834486 102.742002,77.5730153 111,77.5730153 C119.257998,77.5730153 127.132731,78.8834486 134.315914,81.2581234 L152.916776,54.3060232 C155.321022,50.8223404 160.085845,49.9530213 163.559304,52.3643446 C165.447584,53.6752146 166.648684,55.7676376 166.830835,58.06364 L171.795714,120.645833 C171.834442,121.133998 171.826716,121.615119 171.776254,122.084822 C171.924402,123.469661 172,124.871034 172,126.286508 C172,153.190227 144.68937,175 111,175 C77.3106303,175 50,153.190227 50,126.286508 C50,124.871034 50.0755981,123.469661 50.2237458,122.084822 C50.1732842,121.615119 50.165558,121.133998 50.2042859,120.645833 L55.1691653,58.06364 C55.3513158,55.7676376 56.5524163,53.6752146 58.4406961,52.3643446 C61.9141554,49.9530213 66.6789776,50.8223404 69.0832244,54.3060232 L87.6840861,81.2581234 Z"/></g></svg>